<?xml version="1.0" standalone="no"?>
<!DOCTYPE svg PUBLIC "-//W3C//DTD SVG 20010904//EN"
 "http://www.w3.org/TR/2001/REC-SVG-20010904/DTD/svg10.dtd">
<svg version="1.0" xmlns="http://www.w3.org/2000/svg"
 width="1080.000000pt" height="1080.000000pt" viewBox="0 0 1080.000000 1080.000000"
 preserveAspectRatio="xMidYMid meet">

<g transform="translate(0.000000,1080.000000) scale(0.100000,-0.100000)"
fill="#000000" stroke="none">
<path d="M6960 7340 l-95 -49 -1113 0 -1112 -1 -118 -59 c-108 -55 -125 -68
-218 -163 -70 -71 -134 -151 -208 -260 -58 -87 -106 -162 -106 -168 0 -6 26
-10 63 -10 61 0 63 1 114 50 l52 50 1266 0 1266 0 61 58 c35 33 101 119 160
207 76 113 128 178 214 265 63 63 114 119 114 123 0 4 -55 7 -122 6 l-123 0
-95 -49z"/>
<path d="M3305 7235 l-57 -55 -107 0 -108 0 -56 -59 c-53 -56 -57 -63 -57
-108 0 -27 5 -54 12 -61 8 -8 49 -12 118 -12 l106 0 46 -47 c29 -30 66 -87 98
-152 l52 -105 49 -295 c27 -163 51 -306 54 -318 13 -56 6 -66 588 769 l187
268 0 58 c0 59 0 59 -59 115 l-60 57 -374 0 -374 0 -58 -55z"/>
<path d="M4090 6595 c-93 -47 -117 -65 -206 -157 -73 -74 -132 -148 -208 -262
-58 -87 -106 -164 -106 -172 0 -10 15 -14 58 -14 58 0 59 1 113 55 l54 55
1270 0 1271 0 61 63 c33 34 106 130 161 212 55 83 125 175 156 205 31 30 56
58 56 62 0 4 -579 8 -1287 7 l-1288 0 -105 -54z"/>
<path d="M3685 5969 c-142 -72 -285 -213 -431 -425 -57 -84 -107 -159 -110
-168 -5 -14 3 -16 56 -16 61 0 64 1 117 50 l55 50 527 0 527 0 66 68 c36 37
111 135 166 217 55 83 123 172 151 200 28 27 51 55 51 62 0 10 -106 13 -537
12 l-538 0 -100 -50z"/>
</g>
</svg>
